<svg width="112" height="35" viewBox="0 0 112 35" fill="none" xmlns="http://www.w3.org/2000/svg">
<path d="M4 2H2V4V29.8711V31.8711H4H7.75838H9.75838V29.8711V20.6313L13.874 30.5967L14.3847 31.8332H15.7226H18.8418H20.1793L20.6901 30.5971L24.806 20.638V29.8711V31.8711H26.806H30.5643H32.5643V29.8711V4V2H30.5643H25.7705H24.4344L23.9229 3.23426L17.2822 19.2572L10.6415 3.23426L10.1299 2H8.79385H4ZM54.8877 23.0778V21.3064V19.9673C54.8877 16.0461 53.6889 13.0418 51.5989 11.0235C49.5301 9.0256 46.8166 8.21513 44.1949 8.21513C40.9265 8.21513 38.1018 9.46079 36.1132 11.6873C34.1432 13.8931 33.1185 16.9169 33.1185 20.2958C33.1185 23.6962 34.1256 26.713 36.1529 28.8989C38.1964 31.1024 41.0939 32.2627 44.4633 32.2627C49.2335 32.2627 53.144 29.9557 54.4511 25.9566C54.9647 27.8657 56.0757 29.4322 57.6963 30.5251C59.4699 31.721 61.7184 32.2627 64.198 32.2627C66.9004 32.2627 69.357 31.5553 71.1909 30.1792C73.0592 28.7774 74.2261 26.7069 74.2261 24.2623C74.2261 22.4128 73.6085 20.7673 72.2889 19.482C71.4855 18.6996 70.4852 18.1122 69.3486 17.6719L72.1874 17.175L74.3292 16.8001L73.9877 15.4996H74.8691H75.7455V24.9544C75.7382 27.2842 76.6604 29.1764 78.211 30.4374C79.7084 31.6552 81.6332 32.1606 83.5037 32.1236C84.9623 32.1071 86.0027 31.8316 86.6417 31.5971L88.283 30.9946L87.9053 29.2875L87.215 26.1673L86.7926 24.2582L84.8745 24.6373C84.8354 24.645 84.7971 24.6528 84.7592 24.6605C84.4954 24.7139 84.2507 24.7636 83.9199 24.7636C83.7859 24.7636 83.6888 24.7561 83.6207 24.7469C83.5958 24.6435 83.5678 24.4621 83.5678 24.1739V15.4996H85.5946H87.4873C86.9847 16.9525 86.7298 18.5567 86.7298 20.2579C86.7298 23.656 87.7583 26.6702 89.7525 28.8578C91.7631 31.0634 94.6072 32.2627 97.8829 32.2627C101.158 32.2627 104.003 31.0634 106.013 28.8578C108.007 26.6702 109.036 23.656 109.036 20.2579C109.036 16.8438 108.009 13.8203 106.015 11.6268C104.004 9.41475 101.159 8.21513 97.8829 8.21513C94.607 8.21513 91.7618 9.41475 89.7507 11.6268C88.8186 12.652 88.0979 13.8586 87.5946 15.2016V13.4996V10.4678V8.46778H85.5946H83.5678V5.81906V3.81906H81.5678H77.7455H75.7455V5.81906V8.46778H74.8691H72.8691V10.4678V12.4634C72.3075 11.4908 71.55 10.634 70.58 9.94629C68.9353 8.78026 66.8426 8.21513 64.4153 8.21513C61.8704 8.21513 59.5236 8.87643 57.7601 10.2016C55.9567 11.5567 54.8347 13.5675 54.8347 15.9629C54.8347 17.7851 55.4103 19.4583 56.7077 20.7868C57.3756 21.4707 58.1874 22.0147 59.1128 22.4422L55.9619 22.9162L54.8877 23.0778ZM41.342 23.3064H47.2929L47.1556 23.6707C46.8308 24.5326 46.0668 25.1425 44.5017 25.1425C43.3034 25.1425 42.4856 24.769 41.9546 24.227C41.7258 23.9934 41.5136 23.691 41.342 23.3064ZM61.8981 23.8691L61.7626 23.3077C61.7667 23.3086 61.7708 23.3095 61.7748 23.3104L61.7803 23.3116L65.0972 24.0301C65.0982 24.0303 65.0993 24.0306 65.1004 24.0308C65.8703 24.2008 66.1866 24.407 66.2846 24.4954C66.2913 24.5014 66.2965 24.5065 66.3005 24.5106C66.3011 24.5179 66.3016 24.5277 66.3016 24.5403C66.3016 24.5433 66.3039 24.5468 66.2901 24.5701C66.2719 24.6006 66.2134 24.681 66.0637 24.7813C65.7526 24.9896 65.1357 25.2183 64.1725 25.2183C63.2965 25.2183 62.7848 25.0311 62.4992 24.8376C62.2482 24.6676 62.0256 24.3975 61.8981 23.8691ZM66.6402 16.9073L64.1933 16.3524C64.1912 16.3519 64.1891 16.3514 64.187 16.3509C63.2236 16.1251 62.8099 15.9091 62.6568 15.7917C62.6568 15.7881 62.6568 15.7842 62.6569 15.7802L62.6571 15.7619L62.657 15.7577C62.6714 15.736 62.7203 15.6729 62.843 15.5913C63.1238 15.4046 63.6674 15.209 64.4537 15.209C65.2573 15.209 65.6797 15.4205 65.9128 15.6016C66.1651 15.7976 66.3581 16.0868 66.487 16.4616L66.6402 16.9073ZM46.5823 16.4767H41.7196C42.2985 15.77 43.166 15.3353 44.2204 15.3353C45.1901 15.3353 45.8764 15.6778 46.3304 16.1615C46.4194 16.2564 46.5039 16.3615 46.5823 16.4767ZM97.8956 25.092C96.7525 25.092 96.0314 24.6411 95.5236 23.9174C94.9579 23.111 94.5904 21.8443 94.5904 20.2452C94.5904 18.6536 94.9574 17.3773 95.527 16.5603C96.0394 15.8254 96.7619 15.3732 97.8956 15.3732C99.0112 15.3732 99.7281 15.8207 100.24 16.5575C100.808 17.3758 101.175 18.6537 101.175 20.2452C101.175 21.8441 100.808 23.1126 100.243 23.9202C99.7362 24.6457 99.0206 25.092 97.8956 25.092Z" fill="black" stroke="white" stroke-width="4"/>
</svg>
