<svg width="53" height="50" viewBox="0 0 53 50" fill="none" xmlns="http://www.w3.org/2000/svg">
<rect width="53" height="50" fill="white"/>
<path d="M2 2V27.8711H5.75838V9.1373H6.00127L13.7226 27.8332H16.8418L24.5631 9.14993H24.806V27.8711H28.5643V2H23.7705L15.4356 22.1108H15.1288L6.79386 2H2Z" fill="black"/>
<path d="M41.8245 27.8332C46.107 27.8332 49.1367 25.7489 50.006 22.5908L46.3882 21.9465C45.6979 23.7782 44.036 24.713 41.8628 24.713C38.5902 24.713 36.3914 22.6161 36.2892 18.8769H50.2489V17.5378C50.2489 10.5269 46.0047 7.78563 41.556 7.78563C36.0846 7.78563 32.4797 11.9038 32.4797 17.8663C32.4797 23.8919 36.0335 27.8332 41.8245 27.8332ZM36.302 16.0472C36.4554 13.2934 38.4752 10.9058 41.5816 10.9058C44.5474 10.9058 46.4905 13.0786 46.5033 16.0472H36.302Z" fill="black"/>
<path d="M19.4624 32.8609C18.6698 29.8418 16.2793 27.8711 12.0351 27.8711C7.59922 27.8711 4.45446 30.1829 4.45446 33.6189C4.45446 36.3727 6.14189 38.2044 9.82357 39.0129L13.1473 39.7329C15.0393 40.1498 15.9214 40.9835 15.9214 42.1963C15.9214 43.6995 14.2978 44.8743 11.7923 44.8743C9.50398 44.8743 8.03387 43.9016 7.57366 41.9941L3.87919 42.55C4.51837 45.986 7.40747 47.9187 11.8178 47.9187C16.5605 47.9187 19.8459 45.4301 19.8459 41.9183C19.8459 39.1771 18.0818 37.4844 14.4768 36.6633L11.3576 35.9559C9.19718 35.4506 8.26397 34.7305 8.27675 33.4167C8.26397 31.9261 9.90027 30.865 12.0735 30.865C14.4512 30.865 15.5506 32.1661 15.9981 33.4673L19.4624 32.8609Z" fill="black"/>
<path d="M32.6421 28.2627H28.6152V23.614H24.7929V28.2627H21.9166V31.2945H24.7929V42.7521C24.7801 46.2765 27.503 47.9819 30.52 47.9187C31.7344 47.9061 32.5526 47.6787 33 47.5145L32.3097 44.3943C32.054 44.4448 31.581 44.5585 30.9674 44.5585C29.7274 44.5585 28.6152 44.1543 28.6152 41.9689V31.2945H32.6421V28.2627Z" fill="black"/>
<path d="M42.0347 47.9411C47.57 47.9411 51.1878 43.9367 51.1878 37.9363C51.1878 31.898 47.57 27.8935 42.0347 27.8935C36.4994 27.8935 32.8817 31.898 32.8817 37.9363C32.8817 43.9367 36.4994 47.9411 42.0347 47.9411ZM42.0475 44.7704C38.4298 44.7704 36.7423 41.6502 36.7423 37.9236C36.7423 34.2097 38.4298 31.0516 42.0475 31.0516C45.6397 31.0516 47.3271 34.2097 47.3271 37.9236C47.3271 41.6502 45.6397 44.7704 42.0475 44.7704Z" fill="black"/>
</svg>
